<svg xmlns="http://www.w3.org/2000/svg" viewBox="820 820 2360 2360" fill="#1a1a2e">
  <path fill-rule="evenodd" clip-rule="evenodd" d="M1742.075,2062.26l197.432,341.959l184.532,319.615h661.448 v-243.507h-520.862l-241.376-418.068H1742.075z M2124.038,1276.164l-188.023,325.666l-178.96,309.969l281.172,0.004 l226.398-392.132l520.862-0.003v-243.505H2124.038z"/>
  <polygon fill-rule="evenodd" clip-rule="evenodd" points="1737.643,1093.916 1214.513,1999.999 1737.643,2906.083 1878.228,3149.587 2159.403,3149.587 2785.487,3149.587 2785.487,2906.083 2180.85,2906.083 2018.818,2906.083 1495.689,1999.999 2018.818,1093.916 2180.85,1093.916 2785.487,1093.916 2785.487,850.413 2159.403,850.413 1878.228,850.413"/>
  <path fill-rule="evenodd" clip-rule="evenodd" d="M1776.425,1878.245 c-23.432,40.587-46.863,81.169-70.294,121.755c23.432,40.584,46.862,81.17,70.294,121.752h1009.062v-243.507H1776.425z"/>
</svg>
